<svg xmlns="http://www.w3.org/2000/svg" viewBox="0 0 72 72"><defs><style>.cls-1{fill:#fff;}.cls-2{fill:#f9a538;}.cls-3{fill:#000;}.cls-4{fill:#ccc;}</style></defs><g id="WH_Circles" data-name="WH Circles"><circle class="cls-1" cx="36" cy="36" r="36"/></g><g id="Layer_1" data-name="Layer 1"><path class="cls-2" d="M26.24,49.31a27.82,27.82,0,0,0-5.38,3.09,23.56,23.56,0,0,0,12.86,6.77A30.36,30.36,0,0,1,26.24,49.31Z"/><path class="cls-2" d="M14.63,40.49a23.29,23.29,0,0,0,5,10.58,30.2,30.2,0,0,1,5.86-3.39,31.19,31.19,0,0,1-2.2-10H17.84A3.56,3.56,0,0,1,14.63,40.49Z"/><path class="cls-2" d="M36.8,37.72H25.1A29.12,29.12,0,0,0,27.18,47a31.06,31.06,0,0,1,9.62-1.92Z"/><path class="cls-2" d="M36.8,59.36V46.87a29.4,29.4,0,0,0-8.91,1.77A29.16,29.16,0,0,0,36.8,59.36Z"/><path class="cls-2" d="M25.86,21.57a3.75,3.75,0,0,1,.89.13,30.87,30.87,0,0,1,7-8.87A23.49,23.49,0,0,0,20,20.48a29.39,29.39,0,0,0,3.24,2.21A3.56,3.56,0,0,1,25.86,21.57Z"/><path class="cls-2" d="M26,28.69A29.36,29.36,0,0,0,25.05,36H36.8V28.49a31.12,31.12,0,0,1-8-1.38A3.57,3.57,0,0,1,26,28.69Z"/><path class="cls-2" d="M22.3,25.14a3.68,3.68,0,0,1,.12-.89,31.79,31.79,0,0,1-3.5-2.39,23.29,23.29,0,0,0-4.59,11.53h0A3.54,3.54,0,0,1,17.76,36h5.51a30.77,30.77,0,0,1,1-7.67A3.52,3.52,0,0,1,22.3,25.14Z"/><path class="cls-2" d="M48.2,51.2l-.3,0a30.36,30.36,0,0,1-6.58,8,23.53,23.53,0,0,0,13.5-7.13A29.39,29.39,0,0,0,51,49.83,3.53,3.53,0,0,1,48.2,51.2Z"/><path class="cls-2" d="M51.76,47.64a3.43,3.43,0,0,1,0,.56A31.73,31.73,0,0,1,56,50.74a23.19,23.19,0,0,0,5.14-13H51.79A31.64,31.64,0,0,1,50.53,45,3.52,3.52,0,0,1,51.76,47.64Z"/><path class="cls-2" d="M61.2,35.93a23.26,23.26,0,0,0-4.47-13.71A30.61,30.61,0,0,1,50.21,26a31.1,31.1,0,0,1,1.63,9.91Z"/><path class="cls-2" d="M29.42,25.14c0,.09,0,.18,0,.28a29,29,0,0,0,7.41,1.29V12.64a28.88,28.88,0,0,0-8.49,9.92A3.55,3.55,0,0,1,29.42,25.14Z"/><path class="cls-2" d="M38.58,26.73A28.66,28.66,0,0,0,47.94,25a28.84,28.84,0,0,0-9.36-12.17Z"/><path class="cls-2" d="M41.32,12.77A30.76,30.76,0,0,1,49.6,24.35a29,29,0,0,0,6-3.53A23.41,23.41,0,0,0,41.32,12.77Z"/><path class="cls-2" d="M38.58,35.94H50.06a29.29,29.29,0,0,0-1.51-9.25,30.81,30.81,0,0,1-10,1.84Z"/><path class="cls-2" d="M44.64,47.64v-.06a29.28,29.28,0,0,0-6.06-.73V59.16a29.1,29.1,0,0,0,7.6-8.59A3.55,3.55,0,0,1,44.64,47.64Z"/><path class="cls-2" d="M48.2,44.08a3.29,3.29,0,0,1,.71.07A29.62,29.62,0,0,0,50,37.71H38.58v7.35a31.21,31.21,0,0,1,6.55.8A3.52,3.52,0,0,1,48.2,44.08Z"/><path class="cls-3" d="M22.3,25.14a3.52,3.52,0,0,0,1.93,3.14,3.46,3.46,0,0,0,1.63.42H26a3.57,3.57,0,0,0,2.86-1.58,3.51,3.51,0,0,0,.57-1.69c0-.1,0-.19,0-.28a3.55,3.55,0,0,0-2.67-3.44,3.75,3.75,0,0,0-.89-.13,3.56,3.56,0,0,0-2.58,1.12,3.53,3.53,0,0,0-.86,1.56A3.68,3.68,0,0,0,22.3,25.14Z"/><path class="cls-4" d="M14.36,33.39h0a3.57,3.57,0,0,0,0,7.13l.27,0a3.56,3.56,0,0,0,3.21-2.76,4,4,0,0,0,.09-.78,3.33,3.33,0,0,0-.17-1A3.54,3.54,0,0,0,14.36,33.39Z"/><path class="cls-3" d="M44.64,47.64a3.52,3.52,0,0,0,3.26,3.53l.3,0a3.59,3.59,0,0,0,3.51-3,3.43,3.43,0,0,0,0-.56A3.52,3.52,0,0,0,50.53,45a3.43,3.43,0,0,0-1.62-.82,3.29,3.29,0,0,0-.71-.07,3.52,3.52,0,0,0-3.07,1.79,3.58,3.58,0,0,0-.49,1.71Z"/></g></svg>