<svg xmlns="http://www.w3.org/2000/svg" viewBox="0 0 72 72"><defs><style>.cls-1{fill:#fff;}.cls-2{fill:#f9a538;}.cls-3{fill:#ccc;}.cls-4{fill:#000;}</style></defs><g id="WH_Circles" data-name="WH Circles"><circle class="cls-1" cx="36" cy="36" r="36"/></g><g id="Layer_1" data-name="Layer 1"><path class="cls-2" d="M16,19.61V41.49a.69.69,0,0,0,.7.69H32.83L25,55.24a1.38,1.38,0,0,0,2.37,1.43l8.07-13.4V56a1.38,1.38,0,1,0,2.76,0V43.41l7.71,13.24a1.38,1.38,0,0,0,1.19.68,1.46,1.46,0,0,0,.7-.18,1.38,1.38,0,0,0,.49-1.89L40.64,42.18h14.7a.69.69,0,0,0,.7-.69V18.79H16Zm1.78.86H54.35V40.62H17.74Z"/><path class="cls-1" d="M54.35,20.47H17.74V40.62H54.35Zm-35.59.92H43.54V23.3H18.76ZM34.18,39.33H19.45V24.62H34.18Zm12.55,0H35V38.17h11.7Zm5.8-2.26H35V35.91h17.5Zm0-2.26H35V33.65h17.5Zm0-2.25H35V31.39h17.5Zm0-2.26H35V29.14h17.5Zm0-2.26H35V26.88h17.5Zm0-2.26H35V24.62h17.5Zm.67-2.48H44.1V21.39h9.11Z"/><rect class="cls-3" x="19.45" y="24.62" width="14.72" height="14.71"/><rect class="cls-4" x="18.76" y="21.39" width="24.78" height="1.92"/><rect class="cls-4" x="44.1" y="21.39" width="9.11" height="1.92"/><rect class="cls-3" x="14.4" y="16.81" width="43.2" height="0.82"/><path class="cls-4" d="M14.84,18.79H57.16a.43.43,0,0,0,.44-.41v-.75H14.4v.75A.43.43,0,0,0,14.84,18.79Z"/><path class="cls-2" d="M57.6,16.81V15.08a.43.43,0,0,0-.44-.41H14.84a.43.43,0,0,0-.44.41v1.73Z"/><rect class="cls-4" x="35.04" y="24.62" width="17.5" height="1.16"/><rect class="cls-4" x="35.04" y="26.88" width="17.5" height="1.16"/><rect class="cls-4" x="35.04" y="29.14" width="17.5" height="1.16"/><rect class="cls-4" x="35.04" y="31.39" width="17.5" height="1.16"/><rect class="cls-4" x="35.03" y="33.65" width="17.5" height="1.16"/><rect class="cls-4" x="35.03" y="35.91" width="17.5" height="1.16"/><rect class="cls-4" x="35.03" y="38.17" width="11.7" height="1.16"/></g></svg>