<svg xmlns="http://www.w3.org/2000/svg" viewBox="0 0 72 72"><defs><style>.cls-1{fill:#fff;}.cls-2{fill:#f9a538;}.cls-3{fill:#ccc;}.cls-4{fill:#000;}</style></defs><g id="WH_Circles" data-name="WH Circles"><circle class="cls-1" cx="36" cy="36" r="36"/></g><g id="Layer_1" data-name="Layer 1"><path class="cls-2" d="M32.8,15.07a.45.45,0,0,0-.53-.45A22.2,22.2,0,0,0,13.93,32.73a.45.45,0,0,0,.45.53h3.07a.45.45,0,0,0,.44-.37A18.38,18.38,0,0,1,32.43,18.55a.44.44,0,0,0,.37-.44Z"/><path class="cls-2" d="M57.61,39H54.53a.45.45,0,0,0-.44.38,18.35,18.35,0,0,1-14.81,14.8.45.45,0,0,0-.38.44v3a.46.46,0,0,0,.53.45,22.18,22.18,0,0,0,18.64-18.6A.46.46,0,0,0,57.61,39Z"/><path class="cls-3" d="M39.45,51.08A15.25,15.25,0,0,0,51,39.5a.47.47,0,0,0-.46-.55H47.45a.45.45,0,0,0-.43.34,11.52,11.52,0,0,1-7.79,7.86.45.45,0,0,0-.33.43v3.05A.45.45,0,0,0,39.45,51.08Z"/><path class="cls-2" d="M61.2,36.28a1.88,1.88,0,0,0-.57-1.35,1.94,1.94,0,0,0-1.36-.55l-15.33,0a8.15,8.15,0,0,0-6.1-6V12.82a1.92,1.92,0,0,0-3.84,0V28.42a8.22,8.22,0,0,0-6.09,6l-15.2,0a1.92,1.92,0,0,0-1.91,1.9,1.9,1.9,0,0,0,.56,1.35,1.94,1.94,0,0,0,1.36.55l15.19,0a8.16,8.16,0,0,0,6.09,6V59.17a1.92,1.92,0,0,0,1.92,1.91h0a1.9,1.9,0,0,0,1.35-.56,1.86,1.86,0,0,0,.57-1.34v-15a8.19,8.19,0,0,0,6.1-6l15.33,0A1.92,1.92,0,0,0,61.2,36.28ZM36,42.34a5.91,5.91,0,1,1,5.9-5.91A5.91,5.91,0,0,1,36,42.34Z"/><path class="cls-2" d="M54.48,33.34h3.09a.45.45,0,0,0,.45-.53,22.12,22.12,0,0,0-18.6-18.24.46.46,0,0,0-.52.46v3a.45.45,0,0,0,.38.44A18.26,18.26,0,0,1,54,33,.46.46,0,0,0,54.48,33.34Z"/><path class="cls-3" d="M39.23,25.5A11.45,11.45,0,0,1,46.92,33a.45.45,0,0,0,.43.32h3.1a.45.45,0,0,0,.45-.56A15.18,15.18,0,0,0,39.45,21.56a.45.45,0,0,0-.55.45v3A.46.46,0,0,0,39.23,25.5Z"/><path class="cls-3" d="M32.72,47.18a11.44,11.44,0,0,1-7.78-7.58.46.46,0,0,0-.43-.33H21.42a.46.46,0,0,0-.45.56A15.21,15.21,0,0,0,32.5,51.11a.46.46,0,0,0,.55-.45v-3A.46.46,0,0,0,32.72,47.18Z"/><path class="cls-2" d="M17.42,39.27H14.35a.47.47,0,0,0-.46.53A22.15,22.15,0,0,0,32.52,58.08a.45.45,0,0,0,.53-.45v-3a.44.44,0,0,0-.38-.44,18.28,18.28,0,0,1-14.8-14.5A.46.46,0,0,0,17.42,39.27Z"/><path class="cls-3" d="M32.24,21.61A15.25,15.25,0,0,0,21,32.7a.46.46,0,0,0,.45.56h3.1a.45.45,0,0,0,.43-.32,11.49,11.49,0,0,1,7.5-7.38.47.47,0,0,0,.32-.44V22.06A.45.45,0,0,0,32.24,21.61Z"/><path class="cls-4" d="M36,30.53a5.91,5.91,0,1,0,5.9,5.9A5.9,5.9,0,0,0,36,30.53Z"/></g></svg>