<svg xmlns="http://www.w3.org/2000/svg" viewBox="0 0 72 72"><defs><style>.cls-1{fill:#fff;}.cls-2{fill:none;}.cls-3{fill:#f9a538;}.cls-4{fill:#000;}</style></defs><g id="WH_Circles" data-name="WH Circles"><circle class="cls-1" cx="36" cy="36" r="36"/></g><g id="Layer_1" data-name="Layer 1"><path class="cls-2" d="M27,46.15v-.5a.63.63,0,0,0-.48-.6c0,.09-.06.18-.08.26a5.81,5.81,0,0,1,.05.72,6,6,0,0,1-.05.74A.64.64,0,0,0,27,46.15Z"/><path class="cls-2" d="M25.12,44.43c-2.25-.17-8.45-1.62-8.45-1.62a8,8,0,0,1-2.12,2.06c0,.12-.05.24-.07.36a5.29,5.29,0,0,0-.07.8,5.78,5.78,0,0,0,0,.58,6,6,0,0,0,.2.94,5.64,5.64,0,0,0,10.7,0,5.93,5.93,0,0,0,.2-.95,5.44,5.44,0,0,0,0-.57,5.29,5.29,0,0,0-.07-.8,5.06,5.06,0,0,0-.19-.79Z"/><path class="cls-1" d="M20.78,54.07l.77,5.09h.93l1.44-7.57-.43,0H23a6.69,6.69,0,0,1-6.08,0h-.46l-.43,0,1.44,7.57h.93l.77-5.09h0l-.76-1.4h3l-.76,1.4Z"/><path class="cls-3" d="M23.92,51.59l-1.44,7.57h-5l-1.44-7.57a5.69,5.69,0,0,0-5.26,5.67V60H29.18V57.26A5.69,5.69,0,0,0,23.92,51.59Z"/><polygon class="cls-4" points="18.43 59.16 21.55 59.16 20.78 54.07 20.75 54.07 21.51 52.67 18.47 52.67 19.23 54.07 19.2 54.07 18.43 59.16"/><path class="cls-3" d="M12,45.65v.5a1.56,1.56,0,0,0,1.59,1.53h.1A6.34,6.34,0,0,0,17,51.57a6.69,6.69,0,0,0,6.08,0,6.34,6.34,0,0,0,3.24-3.89h.09A1.57,1.57,0,0,0,28,46.15v-.5a1.56,1.56,0,0,0-1.25-1.5c0-.22,0-.44,0-.67v-.06a4.49,4.49,0,0,0,0-.51h0a6,6,0,0,0-1-2.84,7.85,7.85,0,0,0-1-1.14,4.84,4.84,0,0,0-2.61-1.39,7.3,7.3,0,0,0-2.86-.22,6.79,6.79,0,0,0-1.55.36,6.06,6.06,0,0,0-4.34,5.81v.13a4.87,4.87,0,0,0,0,.54A1.55,1.55,0,0,0,12,45.65Zm14.52-.6a.63.63,0,0,1,.48.6v.5a.64.64,0,0,1-.56.62,6,6,0,0,0,.05-.74,5.81,5.81,0,0,0-.05-.72C26.48,45.23,26.51,45.14,26.54,45.05Zm-12.06.18c0-.12,0-.24.07-.36a8,8,0,0,0,2.12-2.06s6.2,1.45,8.45,1.62h.19a5.06,5.06,0,0,1,.19.79,5.29,5.29,0,0,1,.07.8,5.44,5.44,0,0,1,0,.57,5.93,5.93,0,0,1-.2.95,5.64,5.64,0,0,1-10.7,0,6,6,0,0,1-.2-.94,5.78,5.78,0,0,1,0-.58A5.29,5.29,0,0,1,14.48,45.23ZM13,45.65A.63.63,0,0,1,13.5,45c0,.12,0,.24,0,.36s0,.42,0,.64a6,6,0,0,0,0,.74.64.64,0,0,1-.56-.62Z"/><path class="cls-2" d="M59.06,46.41v-.48a.61.61,0,0,0-.53-.59c0,.24,0,.48,0,.7s0,.17,0,.26a5.52,5.52,0,0,1-.05.71A.61.61,0,0,0,59.06,46.41Z"/><path class="cls-2" d="M48.32,51.65l.41,0Z"/><path class="cls-2" d="M55.43,43.2s-6.06,1.4-8.27,1.56H47a4.69,4.69,0,0,0-.19.76,4.79,4.79,0,0,0-.07.77,5.09,5.09,0,0,0,0,.55,4.6,4.6,0,0,0,.19.91,5.55,5.55,0,0,0,10.46,0,4.61,4.61,0,0,0,.2-.91,5.07,5.07,0,0,0,0-.55,4.79,4.79,0,0,0-.07-.77c0-.12,0-.24-.07-.35A7.72,7.72,0,0,1,55.43,43.2Z"/><path class="cls-2" d="M45.89,45.32c-.27.07-.59.33-.59.61v.48a.61.61,0,0,0,.55.6,5.53,5.53,0,0,1,0-.71,5.09,5.09,0,0,1,0-.69A1.13,1.13,0,0,1,45.89,45.32Z"/><path class="cls-3" d="M43.17,57.11v2.65h18V57.11a5.36,5.36,0,0,0-1.43-3.65,7.15,7.15,0,0,0,1-.5.13.13,0,0,0,.07-.14.14.14,0,0,0-.09-.13A4.44,4.44,0,0,1,58.86,51a3.6,3.6,0,0,0,1.94.8.21.21,0,0,0,.17,0,.15.15,0,0,0,0-.17,25.12,25.12,0,0,1-1.46-4.16,1.5,1.5,0,0,0,.2-.24,1.37,1.37,0,0,0,.25-.79v-.48a1.42,1.42,0,0,0-.45-1,7.67,7.67,0,0,0-7.41-7.8,7,7,0,0,0-4,1.24,4,4,0,0,0-1.13.95A8.17,8.17,0,0,0,44.71,45h0a1.44,1.44,0,0,0-.33.9v.48A1.45,1.45,0,0,0,45,47.6a27.45,27.45,0,0,0,.84,4.82A5.45,5.45,0,0,0,43.17,57.11Zm12.6-4.22c-.08.15-1.94,1.83-1.94,1.83l1.25,1.21-2.9,3.14-2.89-3.14,1.25-1.21S48.68,53,48.59,52.89s1.15-1.13,1.15-1.13l2.44,7.31,2.45-7.31S55.92,52.63,55.77,52.89Zm-7.45-1.24.41,0Zm2.25,1.93,3.23,0-1.61,4.78h0Zm8-7.54c0-.22,0-.46,0-.7a.61.61,0,0,1,.53.59v.48a.61.61,0,0,1-.55.6,5.52,5.52,0,0,0,.05-.71C58.56,46.21,58.55,46.13,58.55,46Zm-11.76-.51a4.69,4.69,0,0,1,.19-.76h.18c2.21-.16,8.27-1.56,8.27-1.56a7.72,7.72,0,0,0,2.07,2c0,.11,0,.23.07.35a4.79,4.79,0,0,1,.07.77,5.07,5.07,0,0,1,0,.55,4.61,4.61,0,0,1-.2.91,5.55,5.55,0,0,1-10.46,0,4.6,4.6,0,0,1-.19-.91,5.09,5.09,0,0,1,0-.55A4.79,4.79,0,0,1,46.79,45.53Zm-.93.08a5.09,5.09,0,0,0,0,.69,5.53,5.53,0,0,0,0,.71.61.61,0,0,1-.55-.6v-.48c0-.28.32-.54.59-.61A1.13,1.13,0,0,0,45.86,45.61Z"/><polygon class="cls-4" points="52.19 58.34 53.8 53.56 50.57 53.58 52.15 58.34 52.19 58.34"/><path class="cls-1" d="M55.77,52.89c.15-.26-1.14-1.13-1.14-1.13l-2.45,7.31,2.9-3.14-1.25-1.21S55.69,53,55.77,52.89Z"/><path class="cls-1" d="M52.18,59.07l-2.44-7.31s-1.29.87-1.15,1.13,1.95,1.83,1.95,1.83l-1.25,1.21Z"/><path class="cls-2" d="M43.25,20.94v-.49a.63.63,0,0,0-.49-.6,2.58,2.58,0,0,1-.08.26,5.68,5.68,0,0,1,0,.72,6.13,6.13,0,0,1,0,.74A.65.65,0,0,0,43.25,20.94Z"/><path class="cls-2" d="M41.35,19.23c-2.26-.17-8.46-1.62-8.46-1.62a8,8,0,0,1-2.12,2.06c0,.11-.05.23-.07.36a5.18,5.18,0,0,0-.07.8,3.64,3.64,0,0,0,0,.57,4.75,4.75,0,0,0,.19.94,5.64,5.64,0,0,0,10.7,0,4.75,4.75,0,0,0,.2-.94,5.44,5.44,0,0,0,0-.57,4.18,4.18,0,0,0-.07-.8,5.18,5.18,0,0,0-.19-.8Z"/><path class="cls-1" d="M37,28.87,37.77,34h.93l1.44-7.56-.43,0h-.46a6.67,6.67,0,0,1-6.07,0h-.47l-.43,0L33.73,34h.92l.78-5.08h0l-.76-1.4h3L37,28.87Z"/><path class="cls-3" d="M40.14,26.39,38.7,34h-5l-1.45-7.56A5.69,5.69,0,0,0,27,32.06v2.76H45.4V32.06A5.69,5.69,0,0,0,40.14,26.39Z"/><polygon class="cls-4" points="34.65 33.95 37.77 33.95 37 28.87 36.97 28.87 37.73 27.47 34.69 27.47 35.45 28.87 35.43 28.87 34.65 33.95"/><path class="cls-3" d="M28.24,20.45v.49a1.57,1.57,0,0,0,1.6,1.54h.09a6.35,6.35,0,0,0,3.25,3.89,6.67,6.67,0,0,0,6.07,0,6.33,6.33,0,0,0,3.24-3.89h.1a1.57,1.57,0,0,0,1.6-1.54v-.49A1.55,1.55,0,0,0,42.93,19a4.92,4.92,0,0,0,0-.67v-.07a4.63,4.63,0,0,0,0-.51h0a6.08,6.08,0,0,0-1-2.84,6.16,6.16,0,0,0-1-1.14A6.37,6.37,0,0,0,37,12a7.21,7.21,0,0,0-3.17.46,6.06,6.06,0,0,0-4.34,5.81v.12a4.93,4.93,0,0,0,0,.55A1.54,1.54,0,0,0,28.24,20.45Zm14.52-.6a.63.63,0,0,1,.49.6v.49a.65.65,0,0,1-.57.63,6.13,6.13,0,0,0,0-.74,5.68,5.68,0,0,0,0-.72A2.58,2.58,0,0,0,42.76,19.85ZM30.7,20c0-.13.05-.25.07-.36a8,8,0,0,0,2.12-2.06s6.2,1.45,8.46,1.62h.18a5.18,5.18,0,0,1,.19.8,4.18,4.18,0,0,1,.07.8,5.44,5.44,0,0,1,0,.57,4.75,4.75,0,0,1-.2.94,5.64,5.64,0,0,1-10.7,0,4.75,4.75,0,0,1-.19-.94,3.64,3.64,0,0,1,0-.57A5.18,5.18,0,0,1,30.7,20Zm-1.52.42a.64.64,0,0,1,.55-.62c0,.12,0,.24,0,.36a4.48,4.48,0,0,0,0,.64,6.13,6.13,0,0,0,0,.74.64.64,0,0,1-.56-.63Z"/><path class="cls-4" d="M35.37,20.12a.23.23,0,0,0-.18-.09h-4a.21.21,0,0,0-.18.09.24.24,0,0,0,0,.2l.53,1.89a.23.23,0,0,0,.22.17h3.14A.25.25,0,0,0,35,22.2l.21-1.09a.67.67,0,0,1,.3-.2,2,2,0,0,1,.67-.11,1.9,1.9,0,0,1,.66.11.58.58,0,0,1,.29.2l.22,1.09a.23.23,0,0,0,.22.18h3.15a.23.23,0,0,0,.22-.17l.52-1.89a.24.24,0,0,0,0-.2.23.23,0,0,0-.18-.09h-4a.21.21,0,0,0-.18.09.24.24,0,0,0-.05.18l0,.17a2.26,2.26,0,0,0-.83-.14,2.35,2.35,0,0,0-.84.14l0-.17A.2.2,0,0,0,35.37,20.12Zm-.54.8a.43.43,0,0,0,0,.07h0l-.18.92H31.84l-.4-1.43h3.47ZM41,20.49l-.41,1.43H37.8L37.61,21h0s0,0,0-.08l-.09-.42Z"/><path class="cls-4" d="M42.68,46.86H37.07V38.05a.86.86,0,0,0-1.72,0v8.81h-5.6a.86.86,0,0,0,0,1.72H42.68a.86.86,0,1,0,0-1.72Z"/></g></svg>